<mxfile host="app.diagrams.net" modified="2022-07-25T10:34:29.934Z" agent="5.0 (Macintosh; Intel Mac OS X 10_15_7) AppleWebKit/537.36 (KHTML, like Gecko) Chrome/103.0.0.0 Safari/537.36" etag="LIRtCkrg0al7OPODqXGh" version="20.0.1" type="github">
  <diagram id="XZkbwfD2GeSXZEqlT7_g" name="Page-1">
    <mxGraphModel dx="3080" dy="737" grid="1" gridSize="10" guides="1" tooltips="1" connect="1" arrows="1" fold="1" page="1" pageScale="1" pageWidth="827" pageHeight="1169" math="0" shadow="0">
      <root>
        <mxCell id="0" />
        <mxCell id="1" parent="0" />
        <mxCell id="mWoVSuOA3EwavXobNL_2-2" value="" style="rounded=0;whiteSpace=wrap;html=1;fillColor=none;" parent="1" vertex="1">
          <mxGeometry x="-20" y="150" width="360" height="520" as="geometry" />
        </mxCell>
        <mxCell id="mWoVSuOA3EwavXobNL_2-3" value="" style="rounded=0;whiteSpace=wrap;html=1;fillColor=none;" parent="1" vertex="1">
          <mxGeometry x="40" y="190" width="240" height="170" as="geometry" />
        </mxCell>
        <mxCell id="mWoVSuOA3EwavXobNL_2-4" value="离线服务" style="rounded=0;whiteSpace=wrap;html=1;fillColor=none;" parent="1" vertex="1">
          <mxGeometry x="110" y="260" width="120" height="60" as="geometry" />
        </mxCell>
        <mxCell id="mWoVSuOA3EwavXobNL_2-5" value="超级APP" style="text;html=1;strokeColor=none;fillColor=none;align=center;verticalAlign=middle;whiteSpace=wrap;rounded=0;" parent="1" vertex="1">
          <mxGeometry x="40" y="190" width="60" height="30" as="geometry" />
        </mxCell>
        <mxCell id="mWoVSuOA3EwavXobNL_2-6" value="" style="rounded=0;whiteSpace=wrap;html=1;fillColor=none;" parent="1" vertex="1">
          <mxGeometry x="40" y="380" width="240" height="260" as="geometry" />
        </mxCell>
        <mxCell id="mWoVSuOA3EwavXobNL_2-7" value="子应用" style="text;html=1;strokeColor=none;fillColor=none;align=center;verticalAlign=middle;whiteSpace=wrap;rounded=0;" parent="1" vertex="1">
          <mxGeometry x="40" y="380" width="60" height="30" as="geometry" />
        </mxCell>
        <mxCell id="mWoVSuOA3EwavXobNL_2-8" value="现场检查" style="rounded=0;whiteSpace=wrap;html=1;fillColor=none;" parent="1" vertex="1">
          <mxGeometry x="80" y="420" width="80" height="190" as="geometry" />
        </mxCell>
        <mxCell id="mWoVSuOA3EwavXobNL_2-9" value="实测实量" style="rounded=0;whiteSpace=wrap;html=1;fillColor=none;" parent="1" vertex="1">
          <mxGeometry x="170" y="420" width="80" height="190" as="geometry" />
        </mxCell>
        <mxCell id="mWoVSuOA3EwavXobNL_2-10" value="" style="rounded=0;whiteSpace=wrap;html=1;fillColor=none;" parent="1" vertex="1">
          <mxGeometry x="-533" y="150" width="423" height="520" as="geometry" />
        </mxCell>
        <mxCell id="mWoVSuOA3EwavXobNL_2-11" value="" style="rounded=0;whiteSpace=wrap;html=1;fillColor=none;" parent="1" vertex="1">
          <mxGeometry x="-480" y="190" width="280" height="150" as="geometry" />
        </mxCell>
        <mxCell id="mWoVSuOA3EwavXobNL_2-12" value="超级APP" style="text;html=1;strokeColor=none;fillColor=none;align=center;verticalAlign=middle;whiteSpace=wrap;rounded=0;" parent="1" vertex="1">
          <mxGeometry x="-480" y="190" width="60" height="30" as="geometry" />
        </mxCell>
        <mxCell id="mWoVSuOA3EwavXobNL_2-13" value="" style="rounded=0;whiteSpace=wrap;html=1;fillColor=none;" parent="1" vertex="1">
          <mxGeometry x="-480" y="365" width="280" height="275" as="geometry" />
        </mxCell>
        <mxCell id="mWoVSuOA3EwavXobNL_2-14" value="子应用" style="text;html=1;strokeColor=none;fillColor=none;align=center;verticalAlign=middle;whiteSpace=wrap;rounded=0;" parent="1" vertex="1">
          <mxGeometry x="-480" y="365" width="60" height="30" as="geometry" />
        </mxCell>
        <mxCell id="mWoVSuOA3EwavXobNL_2-15" value="" style="rounded=0;whiteSpace=wrap;html=1;fillColor=none;" parent="1" vertex="1">
          <mxGeometry x="-440" y="400" width="210" height="70" as="geometry" />
        </mxCell>
        <mxCell id="mWoVSuOA3EwavXobNL_2-16" value="质检主容器" style="text;html=1;strokeColor=none;fillColor=none;align=center;verticalAlign=middle;whiteSpace=wrap;rounded=0;" parent="1" vertex="1">
          <mxGeometry x="-440" y="400" width="100" height="30" as="geometry" />
        </mxCell>
        <mxCell id="mWoVSuOA3EwavXobNL_2-17" value="离线服务" style="text;html=1;strokeColor=none;fillColor=none;align=center;verticalAlign=middle;whiteSpace=wrap;rounded=0;" parent="1" vertex="1">
          <mxGeometry x="-370" y="440" width="60" height="30" as="geometry" />
        </mxCell>
        <mxCell id="mWoVSuOA3EwavXobNL_2-18" value="" style="rounded=0;whiteSpace=wrap;html=1;fillColor=none;" parent="1" vertex="1">
          <mxGeometry x="-440" y="490" width="210" height="140" as="geometry" />
        </mxCell>
        <mxCell id="mWoVSuOA3EwavXobNL_2-19" value="现场检查" style="rounded=0;whiteSpace=wrap;html=1;fillColor=none;" parent="1" vertex="1">
          <mxGeometry x="-420" y="500" width="60" height="120" as="geometry" />
        </mxCell>
        <mxCell id="mWoVSuOA3EwavXobNL_2-20" value="实测实量" style="rounded=0;whiteSpace=wrap;html=1;fillColor=none;" parent="1" vertex="1">
          <mxGeometry x="-320" y="500" width="60" height="120" as="geometry" />
        </mxCell>
        <mxCell id="mWoVSuOA3EwavXobNL_2-21" value="" style="rounded=0;whiteSpace=wrap;html=1;fillColor=none;" parent="1" vertex="1">
          <mxGeometry x="-960" y="150" width="360" height="520" as="geometry" />
        </mxCell>
        <mxCell id="mWoVSuOA3EwavXobNL_2-22" value="" style="rounded=0;whiteSpace=wrap;html=1;fillColor=none;" parent="1" vertex="1">
          <mxGeometry x="400" y="150" width="440" height="520" as="geometry" />
        </mxCell>
        <mxCell id="mWoVSuOA3EwavXobNL_2-23" value="" style="rounded=0;whiteSpace=wrap;html=1;fillColor=none;" parent="1" vertex="1">
          <mxGeometry x="460" y="190" width="310" height="190" as="geometry" />
        </mxCell>
        <mxCell id="mWoVSuOA3EwavXobNL_2-24" value="超级APP" style="text;html=1;strokeColor=none;fillColor=none;align=center;verticalAlign=middle;whiteSpace=wrap;rounded=0;" parent="1" vertex="1">
          <mxGeometry x="460" y="190" width="60" height="30" as="geometry" />
        </mxCell>
        <mxCell id="mWoVSuOA3EwavXobNL_2-25" value="" style="rounded=0;whiteSpace=wrap;html=1;fillColor=none;" parent="1" vertex="1">
          <mxGeometry x="460" y="420" width="320" height="200" as="geometry" />
        </mxCell>
        <mxCell id="mWoVSuOA3EwavXobNL_2-26" value="" style="rounded=0;whiteSpace=wrap;html=1;fillColor=none;" parent="1" vertex="1">
          <mxGeometry x="480" y="430" width="150" height="180" as="geometry" />
        </mxCell>
        <mxCell id="mWoVSuOA3EwavXobNL_2-27" value="离线服务" style="rounded=0;whiteSpace=wrap;html=1;fillColor=none;" parent="1" vertex="1">
          <mxGeometry x="490" y="440" width="120" height="60" as="geometry" />
        </mxCell>
        <mxCell id="mWoVSuOA3EwavXobNL_2-28" value="现场检查" style="rounded=0;whiteSpace=wrap;html=1;fillColor=none;" parent="1" vertex="1">
          <mxGeometry x="495" y="530" width="120" height="60" as="geometry" />
        </mxCell>
        <mxCell id="mWoVSuOA3EwavXobNL_2-29" value="" style="rounded=0;whiteSpace=wrap;html=1;fillColor=none;" parent="1" vertex="1">
          <mxGeometry x="640" y="430" width="130" height="180" as="geometry" />
        </mxCell>
        <mxCell id="mWoVSuOA3EwavXobNL_2-30" value="离线服务" style="rounded=0;whiteSpace=wrap;html=1;fillColor=none;" parent="1" vertex="1">
          <mxGeometry x="650" y="440" width="100" height="60" as="geometry" />
        </mxCell>
        <mxCell id="mWoVSuOA3EwavXobNL_2-31" value="实测实量" style="rounded=0;whiteSpace=wrap;html=1;fillColor=none;" parent="1" vertex="1">
          <mxGeometry x="650" y="530" width="100" height="60" as="geometry" />
        </mxCell>
      </root>
    </mxGraphModel>
  </diagram>
</mxfile>
